<svg width="390"
    height="97"
    viewBox="0 0 390 97"
    fill="none"
    xmlns="http://www.w3.org/2000/svg">
    <mask
        id="path-1-outside-1_1255_8264"
        maskUnits="userSpaceOnUse"
        x="-12"
        y="-2"
        width="415"
        height="99"
        fill="black">
        <rect
            fill="white"
            x="-12"
            y="-2"
            width="415"
            height="99" />
        <path
            fill-rule="evenodd"
            clip-rule="evenodd"
            d="M390 0H0V63.2397C-5.87179 65.6835 -10 71.4761 -10 78.2329C-10 87.198 -2.73229 94.4658 6.23288 94.4658C10.2369 94.4658 13.9023 93.0161 16.7329 90.613C19.5635 93.0161 23.2289 94.4658 27.2329 94.4658C31.2369 94.4658 34.9023 93.0161 37.7329 90.613C40.5635 93.0161 44.2289 94.4658 48.2329 94.4658C52.2369 94.4658 55.9023 93.0161 58.7329 90.613C61.5635 93.0161 65.2289 94.4658 69.2329 94.4658C73.2369 94.4658 76.9023 93.0161 79.7329 90.613C82.5635 93.0161 86.2289 94.4658 90.2329 94.4658C94.2369 94.4658 97.9023 93.0161 100.733 90.613C103.563 93.0161 107.229 94.4658 111.233 94.4658C115.237 94.4658 118.902 93.0161 121.733 90.613C124.563 93.0161 128.229 94.4658 132.233 94.4658C136.237 94.4658 139.902 93.0161 142.733 90.613C145.563 93.0161 149.229 94.4658 153.233 94.4658C157.237 94.4658 160.902 93.0161 163.733 90.613C166.563 93.0161 170.229 94.4658 174.233 94.4658C178.237 94.4658 181.902 93.0161 184.733 90.613C187.563 93.0161 191.229 94.4658 195.233 94.4658C199.237 94.4658 202.902 93.0161 205.733 90.613C208.563 93.0161 212.229 94.4658 216.233 94.4658C220.237 94.4658 223.902 93.0161 226.733 90.613C229.563 93.0161 233.229 94.4658 237.233 94.4658C241.237 94.4658 244.902 93.0161 247.733 90.613C250.563 93.0161 254.229 94.4658 258.233 94.4658C262.237 94.4658 265.902 93.0161 268.733 90.613C271.563 93.0161 275.229 94.4658 279.233 94.4658C283.237 94.4658 286.902 93.0161 289.733 90.613C292.563 93.0161 296.229 94.4658 300.233 94.4658C304.237 94.4658 307.902 93.0161 310.733 90.613C313.563 93.0161 317.229 94.4658 321.233 94.4658C325.237 94.4658 328.902 93.0161 331.733 90.613C334.563 93.0161 338.229 94.4658 342.233 94.4658C346.237 94.4658 349.902 93.0161 352.733 90.613C355.563 93.0161 359.229 94.4658 363.233 94.4658C367.237 94.4658 370.902 93.0161 373.733 90.613C376.563 93.0161 380.229 94.4658 384.233 94.4658C393.198 94.4658 400.466 87.198 400.466 78.2329C400.466 71.2988 396.118 65.3802 390 63.0543V0Z" />
    </mask>
    <path
        fill-rule="evenodd"
        clip-rule="evenodd"
        d="M390 0H0V63.2397C-5.87179 65.6835 -10 71.4761 -10 78.2329C-10 87.198 -2.73229 94.4658 6.23288 94.4658C10.2369 94.4658 13.9023 93.0161 16.7329 90.613C19.5635 93.0161 23.2289 94.4658 27.2329 94.4658C31.2369 94.4658 34.9023 93.0161 37.7329 90.613C40.5635 93.0161 44.2289 94.4658 48.2329 94.4658C52.2369 94.4658 55.9023 93.0161 58.7329 90.613C61.5635 93.0161 65.2289 94.4658 69.2329 94.4658C73.2369 94.4658 76.9023 93.0161 79.7329 90.613C82.5635 93.0161 86.2289 94.4658 90.2329 94.4658C94.2369 94.4658 97.9023 93.0161 100.733 90.613C103.563 93.0161 107.229 94.4658 111.233 94.4658C115.237 94.4658 118.902 93.0161 121.733 90.613C124.563 93.0161 128.229 94.4658 132.233 94.4658C136.237 94.4658 139.902 93.0161 142.733 90.613C145.563 93.0161 149.229 94.4658 153.233 94.4658C157.237 94.4658 160.902 93.0161 163.733 90.613C166.563 93.0161 170.229 94.4658 174.233 94.4658C178.237 94.4658 181.902 93.0161 184.733 90.613C187.563 93.0161 191.229 94.4658 195.233 94.4658C199.237 94.4658 202.902 93.0161 205.733 90.613C208.563 93.0161 212.229 94.4658 216.233 94.4658C220.237 94.4658 223.902 93.0161 226.733 90.613C229.563 93.0161 233.229 94.4658 237.233 94.4658C241.237 94.4658 244.902 93.0161 247.733 90.613C250.563 93.0161 254.229 94.4658 258.233 94.4658C262.237 94.4658 265.902 93.0161 268.733 90.613C271.563 93.0161 275.229 94.4658 279.233 94.4658C283.237 94.4658 286.902 93.0161 289.733 90.613C292.563 93.0161 296.229 94.4658 300.233 94.4658C304.237 94.4658 307.902 93.0161 310.733 90.613C313.563 93.0161 317.229 94.4658 321.233 94.4658C325.237 94.4658 328.902 93.0161 331.733 90.613C334.563 93.0161 338.229 94.4658 342.233 94.4658C346.237 94.4658 349.902 93.0161 352.733 90.613C355.563 93.0161 359.229 94.4658 363.233 94.4658C367.237 94.4658 370.902 93.0161 373.733 90.613C376.563 93.0161 380.229 94.4658 384.233 94.4658C393.198 94.4658 400.466 87.198 400.466 78.2329C400.466 71.2988 396.118 65.3802 390 63.0543V0Z"
        fill="white" />
    <path
        d="M0 0V-2H-2V0H0ZM390 0H392V-2H390V0ZM0 63.2397L0.76848 65.0862L2 64.5736V63.2397H0ZM16.7329 90.613L18.0273 89.0883L16.7329 87.9894L15.4385 89.0883L16.7329 90.613ZM37.7329 90.613L39.0273 89.0883L37.7329 87.9894L36.4385 89.0883L37.7329 90.613ZM58.7329 90.613L60.0273 89.0883L58.7329 87.9894L57.4385 89.0883L58.7329 90.613ZM79.7329 90.613L81.0273 89.0883L79.7329 87.9894L78.4385 89.0883L79.7329 90.613ZM100.733 90.613L102.027 89.0883L100.733 87.9894L99.4385 89.0883L100.733 90.613ZM121.733 90.613L123.027 89.0883L121.733 87.9894L120.438 89.0883L121.733 90.613ZM142.733 90.613L144.027 89.0883L142.733 87.9894L141.438 89.0883L142.733 90.613ZM163.733 90.613L165.027 89.0883L163.733 87.9894L162.438 89.0883L163.733 90.613ZM184.733 90.613L186.027 89.0883L184.733 87.9894L183.438 89.0883L184.733 90.613ZM205.733 90.613L207.027 89.0883L205.733 87.9894L204.438 89.0883L205.733 90.613ZM226.733 90.613L228.027 89.0883L226.733 87.9894L225.438 89.0883L226.733 90.613ZM247.733 90.613L249.027 89.0883L247.733 87.9894L246.439 89.0883L247.733 90.613ZM268.733 90.613L270.027 89.0883L268.733 87.9894L267.439 89.0883L268.733 90.613ZM289.733 90.613L291.027 89.0883L289.733 87.9894L288.439 89.0883L289.733 90.613ZM310.733 90.613L312.027 89.0883L310.733 87.9894L309.439 89.0883L310.733 90.613ZM331.733 90.613L333.027 89.0883L331.733 87.9894L330.439 89.0883L331.733 90.613ZM352.733 90.613L354.027 89.0883L352.733 87.9894L351.439 89.0883L352.733 90.613ZM373.733 90.613L375.027 89.0883L373.733 87.9894L372.439 89.0883L373.733 90.613ZM390 63.0543H388V64.4336L389.289 64.9238L390 63.0543ZM0 2H390V-2H0V2ZM2 63.2397V0H-2V63.2397H2ZM-0.76848 61.3932C-7.35984 64.1365 -12 70.6405 -12 78.2329H-8C-8 72.3117 -4.38374 67.2305 0.76848 65.0862L-0.76848 61.3932ZM-12 78.2329C-12 88.3026 -3.83686 96.4658 6.23288 96.4658V92.4658C-1.62772 92.4658 -8 86.0935 -8 78.2329H-12ZM6.23288 96.4658C10.7286 96.4658 14.8488 94.8361 18.0273 92.1376L15.4385 89.0883C12.9558 91.1961 9.74516 92.4658 6.23288 92.4658V96.4658ZM15.4385 92.1376C18.617 94.8361 22.7372 96.4658 27.2329 96.4658V92.4658C23.7206 92.4658 20.51 91.1961 18.0273 89.0883L15.4385 92.1376ZM27.2329 96.4658C31.7286 96.4658 35.8488 94.8361 39.0273 92.1376L36.4385 89.0883C33.9558 91.1961 30.7452 92.4658 27.2329 92.4658V96.4658ZM36.4385 92.1376C39.617 94.8361 43.7372 96.4658 48.2329 96.4658V92.4658C44.7206 92.4658 41.51 91.1961 39.0273 89.0883L36.4385 92.1376ZM48.2329 96.4658C52.7286 96.4658 56.8488 94.8361 60.0273 92.1376L57.4385 89.0883C54.9558 91.1961 51.7452 92.4658 48.2329 92.4658V96.4658ZM57.4385 92.1376C60.617 94.8361 64.7372 96.4658 69.2329 96.4658V92.4658C65.7206 92.4658 62.51 91.1961 60.0273 89.0883L57.4385 92.1376ZM69.2329 96.4658C73.7286 96.4658 77.8488 94.8361 81.0273 92.1376L78.4385 89.0883C75.9558 91.1961 72.7452 92.4658 69.2329 92.4658V96.4658ZM78.4385 92.1376C81.617 94.8361 85.7372 96.4658 90.2329 96.4658V92.4658C86.7206 92.4658 83.51 91.1961 81.0273 89.0883L78.4385 92.1376ZM90.2329 96.4658C94.7286 96.4658 98.8488 94.8361 102.027 92.1376L99.4385 89.0883C96.9558 91.1961 93.7452 92.4658 90.2329 92.4658V96.4658ZM99.4385 92.1376C102.617 94.8361 106.737 96.4658 111.233 96.4658V92.4658C107.721 92.4658 104.51 91.1961 102.027 89.0883L99.4385 92.1376ZM111.233 96.4658C115.729 96.4658 119.849 94.8361 123.027 92.1376L120.438 89.0883C117.956 91.1961 114.745 92.4658 111.233 92.4658V96.4658ZM120.438 92.1376C123.617 94.8361 127.737 96.4658 132.233 96.4658V92.4658C128.721 92.4658 125.51 91.1961 123.027 89.0883L120.438 92.1376ZM132.233 96.4658C136.729 96.4658 140.849 94.8361 144.027 92.1376L141.438 89.0883C138.956 91.1961 135.745 92.4658 132.233 92.4658V96.4658ZM141.438 92.1376C144.617 94.8361 148.737 96.4658 153.233 96.4658V92.4658C149.721 92.4658 146.51 91.1961 144.027 89.0883L141.438 92.1376ZM153.233 96.4658C157.729 96.4658 161.849 94.8361 165.027 92.1376L162.438 89.0883C159.956 91.1961 156.745 92.4658 153.233 92.4658V96.4658ZM162.438 92.1376C165.617 94.8361 169.737 96.4658 174.233 96.4658V92.4658C170.721 92.4658 167.51 91.1961 165.027 89.0883L162.438 92.1376ZM174.233 96.4658C178.729 96.4658 182.849 94.8361 186.027 92.1376L183.438 89.0883C180.956 91.1961 177.745 92.4658 174.233 92.4658V96.4658ZM183.438 92.1376C186.617 94.8361 190.737 96.4658 195.233 96.4658V92.4658C191.721 92.4658 188.51 91.1961 186.027 89.0883L183.438 92.1376ZM195.233 96.4658C199.729 96.4658 203.849 94.8361 207.027 92.1376L204.438 89.0883C201.956 91.1961 198.745 92.4658 195.233 92.4658V96.4658ZM204.438 92.1376C207.617 94.8361 211.737 96.4658 216.233 96.4658V92.4658C212.721 92.4658 209.51 91.1961 207.027 89.0883L204.438 92.1376ZM216.233 96.4658C220.729 96.4658 224.849 94.8361 228.027 92.1376L225.438 89.0883C222.956 91.1961 219.745 92.4658 216.233 92.4658V96.4658ZM225.438 92.1376C228.617 94.8361 232.737 96.4658 237.233 96.4658V92.4658C233.721 92.4658 230.51 91.1961 228.027 89.0883L225.438 92.1376ZM237.233 96.4658C241.729 96.4658 245.849 94.8361 249.027 92.1376L246.439 89.0883C243.956 91.1961 240.745 92.4658 237.233 92.4658V96.4658ZM246.439 92.1376C249.617 94.8361 253.737 96.4658 258.233 96.4658V92.4658C254.721 92.4658 251.51 91.1961 249.027 89.0883L246.439 92.1376ZM258.233 96.4658C262.729 96.4658 266.849 94.8361 270.027 92.1376L267.439 89.0883C264.956 91.1961 261.745 92.4658 258.233 92.4658V96.4658ZM267.439 92.1376C270.617 94.8361 274.737 96.4658 279.233 96.4658V92.4658C275.721 92.4658 272.51 91.1961 270.027 89.0883L267.439 92.1376ZM279.233 96.4658C283.729 96.4658 287.849 94.8361 291.027 92.1376L288.439 89.0883C285.956 91.1961 282.745 92.4658 279.233 92.4658V96.4658ZM288.439 92.1376C291.617 94.8361 295.737 96.4658 300.233 96.4658V92.4658C296.721 92.4658 293.51 91.1961 291.027 89.0883L288.439 92.1376ZM300.233 96.4658C304.729 96.4658 308.849 94.8361 312.027 92.1376L309.439 89.0883C306.956 91.1961 303.745 92.4658 300.233 92.4658V96.4658ZM309.439 92.1376C312.617 94.8361 316.737 96.4658 321.233 96.4658V92.4658C317.721 92.4658 314.51 91.1961 312.027 89.0883L309.439 92.1376ZM321.233 96.4658C325.729 96.4658 329.849 94.8361 333.027 92.1376L330.439 89.0883C327.956 91.1961 324.745 92.4658 321.233 92.4658V96.4658ZM330.439 92.1376C333.617 94.8361 337.737 96.4658 342.233 96.4658V92.4658C338.721 92.4658 335.51 91.1961 333.027 89.0883L330.439 92.1376ZM342.233 96.4658C346.729 96.4658 350.849 94.8361 354.027 92.1376L351.439 89.0883C348.956 91.1961 345.745 92.4658 342.233 92.4658V96.4658ZM351.439 92.1376C354.617 94.8361 358.737 96.4658 363.233 96.4658V92.4658C359.721 92.4658 356.51 91.1961 354.027 89.0883L351.439 92.1376ZM363.233 96.4658C367.729 96.4658 371.849 94.8361 375.027 92.1376L372.439 89.0883C369.956 91.1961 366.745 92.4658 363.233 92.4658V96.4658ZM372.439 92.1376C375.617 94.8361 379.737 96.4658 384.233 96.4658V92.4658C380.721 92.4658 377.51 91.1961 375.027 89.0883L372.439 92.1376ZM384.233 96.4658C394.303 96.4658 402.466 88.3026 402.466 78.2329H398.466C398.466 86.0935 392.093 92.4658 384.233 92.4658V96.4658ZM402.466 78.2329C402.466 70.4413 397.579 63.796 390.711 61.1848L389.289 64.9238C394.657 66.9643 398.466 72.1563 398.466 78.2329H402.466ZM388 0V63.0543H392V0H388Z"
        fill="#FF9681"
        mask="url(#path-1-outside-1_1255_8264)" />
</svg>
