<svg width="390" height="454" viewBox="0 0 390 454" fill="none" xmlns="http://www.w3.org/2000/svg">
<mask id="path-1-outside-1_657_17135" maskUnits="userSpaceOnUse" x="-12" y="-3" width="415" height="457" fill="black">
<rect fill="white" x="-12" y="-3" width="415" height="457"/>
<path fill-rule="evenodd" clip-rule="evenodd" d="M390 -1H0V357V371V420.24C-5.87179 422.683 -10 428.476 -10 435.233C-10 444.198 -2.73229 451.466 6.23288 451.466C10.2369 451.466 13.9023 450.016 16.7329 447.613C19.5635 450.016 23.2289 451.466 27.2329 451.466C31.2369 451.466 34.9023 450.016 37.7329 447.613C40.5635 450.016 44.2289 451.466 48.2329 451.466C52.2369 451.466 55.9023 450.016 58.7329 447.613C61.5635 450.016 65.2289 451.466 69.2329 451.466C73.2369 451.466 76.9023 450.016 79.7329 447.613C82.5635 450.016 86.2289 451.466 90.2329 451.466C94.2369 451.466 97.9023 450.016 100.733 447.613C103.563 450.016 107.229 451.466 111.233 451.466C115.237 451.466 118.902 450.016 121.733 447.613C124.563 450.016 128.229 451.466 132.233 451.466C136.237 451.466 139.902 450.016 142.733 447.613C145.563 450.016 149.229 451.466 153.233 451.466C157.237 451.466 160.902 450.016 163.733 447.613C166.563 450.016 170.229 451.466 174.233 451.466C178.237 451.466 181.902 450.016 184.733 447.613C187.563 450.016 191.229 451.466 195.233 451.466C199.237 451.466 202.902 450.016 205.733 447.613C208.563 450.016 212.229 451.466 216.233 451.466C220.237 451.466 223.902 450.016 226.733 447.613C229.563 450.016 233.229 451.466 237.233 451.466C241.237 451.466 244.902 450.016 247.733 447.613C250.563 450.016 254.229 451.466 258.233 451.466C262.237 451.466 265.902 450.016 268.733 447.613C271.563 450.016 275.229 451.466 279.233 451.466C283.237 451.466 286.902 450.016 289.733 447.613C292.563 450.016 296.229 451.466 300.233 451.466C304.237 451.466 307.902 450.016 310.733 447.613C313.563 450.016 317.229 451.466 321.233 451.466C325.237 451.466 328.902 450.016 331.733 447.613C334.563 450.016 338.229 451.466 342.233 451.466C346.237 451.466 349.902 450.016 352.733 447.613C355.563 450.016 359.229 451.466 363.233 451.466C367.237 451.466 370.902 450.016 373.733 447.613C376.563 450.016 380.229 451.466 384.233 451.466C393.198 451.466 400.466 444.198 400.466 435.233C400.466 428.299 396.118 422.38 390 420.054V371V357V-1Z"/>
</mask>
<path fill-rule="evenodd" clip-rule="evenodd" d="M390 -1H0V357V371V420.24C-5.87179 422.683 -10 428.476 -10 435.233C-10 444.198 -2.73229 451.466 6.23288 451.466C10.2369 451.466 13.9023 450.016 16.7329 447.613C19.5635 450.016 23.2289 451.466 27.2329 451.466C31.2369 451.466 34.9023 450.016 37.7329 447.613C40.5635 450.016 44.2289 451.466 48.2329 451.466C52.2369 451.466 55.9023 450.016 58.7329 447.613C61.5635 450.016 65.2289 451.466 69.2329 451.466C73.2369 451.466 76.9023 450.016 79.7329 447.613C82.5635 450.016 86.2289 451.466 90.2329 451.466C94.2369 451.466 97.9023 450.016 100.733 447.613C103.563 450.016 107.229 451.466 111.233 451.466C115.237 451.466 118.902 450.016 121.733 447.613C124.563 450.016 128.229 451.466 132.233 451.466C136.237 451.466 139.902 450.016 142.733 447.613C145.563 450.016 149.229 451.466 153.233 451.466C157.237 451.466 160.902 450.016 163.733 447.613C166.563 450.016 170.229 451.466 174.233 451.466C178.237 451.466 181.902 450.016 184.733 447.613C187.563 450.016 191.229 451.466 195.233 451.466C199.237 451.466 202.902 450.016 205.733 447.613C208.563 450.016 212.229 451.466 216.233 451.466C220.237 451.466 223.902 450.016 226.733 447.613C229.563 450.016 233.229 451.466 237.233 451.466C241.237 451.466 244.902 450.016 247.733 447.613C250.563 450.016 254.229 451.466 258.233 451.466C262.237 451.466 265.902 450.016 268.733 447.613C271.563 450.016 275.229 451.466 279.233 451.466C283.237 451.466 286.902 450.016 289.733 447.613C292.563 450.016 296.229 451.466 300.233 451.466C304.237 451.466 307.902 450.016 310.733 447.613C313.563 450.016 317.229 451.466 321.233 451.466C325.237 451.466 328.902 450.016 331.733 447.613C334.563 450.016 338.229 451.466 342.233 451.466C346.237 451.466 349.902 450.016 352.733 447.613C355.563 450.016 359.229 451.466 363.233 451.466C367.237 451.466 370.902 450.016 373.733 447.613C376.563 450.016 380.229 451.466 384.233 451.466C393.198 451.466 400.466 444.198 400.466 435.233C400.466 428.299 396.118 422.38 390 420.054V371V357V-1Z" fill="white"/>
<path d="M0 -1V-3H-2V-1H0ZM390 -1H392V-3H390V-1ZM0 420.24L0.768475 422.086L2 421.574V420.24H0ZM16.7329 447.613L18.0273 446.088L16.7329 444.989L15.4385 446.088L16.7329 447.613ZM37.7329 447.613L39.0273 446.088L37.7329 444.989L36.4385 446.088L37.7329 447.613ZM58.7329 447.613L60.0273 446.088L58.7329 444.989L57.4385 446.088L58.7329 447.613ZM79.7329 447.613L81.0273 446.088L79.7329 444.989L78.4385 446.088L79.7329 447.613ZM100.733 447.613L102.027 446.088L100.733 444.989L99.4385 446.088L100.733 447.613ZM121.733 447.613L123.027 446.088L121.733 444.989L120.438 446.088L121.733 447.613ZM142.733 447.613L144.027 446.088L142.733 444.989L141.438 446.088L142.733 447.613ZM163.733 447.613L165.027 446.088L163.733 444.989L162.438 446.088L163.733 447.613ZM184.733 447.613L186.027 446.088L184.733 444.989L183.438 446.088L184.733 447.613ZM205.733 447.613L207.027 446.088L205.733 444.989L204.438 446.088L205.733 447.613ZM226.733 447.613L228.027 446.088L226.733 444.989L225.438 446.088L226.733 447.613ZM247.733 447.613L249.027 446.088L247.733 444.989L246.438 446.088L247.733 447.613ZM268.733 447.613L270.027 446.088L268.733 444.989L267.438 446.088L268.733 447.613ZM289.733 447.613L291.027 446.088L289.733 444.989L288.438 446.088L289.733 447.613ZM310.733 447.613L312.027 446.088L310.733 444.989L309.438 446.088L310.733 447.613ZM331.733 447.613L333.027 446.088L331.733 444.989L330.438 446.088L331.733 447.613ZM352.733 447.613L354.027 446.088L352.733 444.989L351.438 446.088L352.733 447.613ZM373.733 447.613L375.027 446.088L373.733 444.989L372.438 446.088L373.733 447.613ZM390 420.054H388V421.434L389.289 421.924L390 420.054ZM0 1H390V-3H0V1ZM2 357V-1H-2V357H2ZM-2 357V371H2V357H-2ZM-2 371V420.24H2V371H-2ZM-0.768475 418.393C-7.35984 421.136 -12 427.64 -12 435.233H-8C-8 429.312 -4.38374 424.23 0.768475 422.086L-0.768475 418.393ZM-12 435.233C-12 445.303 -3.83686 453.466 6.23288 453.466V449.466C-1.62772 449.466 -8 443.093 -8 435.233H-12ZM6.23288 453.466C10.7286 453.466 14.8488 451.836 18.0273 449.138L15.4385 446.088C12.9558 448.196 9.74516 449.466 6.23288 449.466V453.466ZM15.4385 449.138C18.6169 451.836 22.7372 453.466 27.2329 453.466V449.466C23.7206 449.466 20.51 448.196 18.0273 446.088L15.4385 449.138ZM27.2329 453.466C31.7286 453.466 35.8488 451.836 39.0273 449.138L36.4385 446.088C33.9558 448.196 30.7452 449.466 27.2329 449.466V453.466ZM36.4385 449.138C39.617 451.836 43.7372 453.466 48.2329 453.466V449.466C44.7206 449.466 41.51 448.196 39.0273 446.088L36.4385 449.138ZM48.2329 453.466C52.7286 453.466 56.8488 451.836 60.0273 449.138L57.4385 446.088C54.9558 448.196 51.7452 449.466 48.2329 449.466V453.466ZM57.4385 449.138C60.617 451.836 64.7372 453.466 69.2329 453.466V449.466C65.7206 449.466 62.51 448.196 60.0273 446.088L57.4385 449.138ZM69.2329 453.466C73.7286 453.466 77.8488 451.836 81.0273 449.138L78.4385 446.088C75.9558 448.196 72.7452 449.466 69.2329 449.466V453.466ZM78.4385 449.138C81.617 451.836 85.7372 453.466 90.2329 453.466V449.466C86.7206 449.466 83.51 448.196 81.0273 446.088L78.4385 449.138ZM90.2329 453.466C94.7286 453.466 98.8488 451.836 102.027 449.138L99.4385 446.088C96.9558 448.196 93.7452 449.466 90.2329 449.466V453.466ZM99.4385 449.138C102.617 451.836 106.737 453.466 111.233 453.466V449.466C107.721 449.466 104.51 448.196 102.027 446.088L99.4385 449.138ZM111.233 453.466C115.729 453.466 119.849 451.836 123.027 449.138L120.438 446.088C117.956 448.196 114.745 449.466 111.233 449.466V453.466ZM120.438 449.138C123.617 451.836 127.737 453.466 132.233 453.466V449.466C128.721 449.466 125.51 448.196 123.027 446.088L120.438 449.138ZM132.233 453.466C136.729 453.466 140.849 451.836 144.027 449.138L141.438 446.088C138.956 448.196 135.745 449.466 132.233 449.466V453.466ZM141.438 449.138C144.617 451.836 148.737 453.466 153.233 453.466V449.466C149.721 449.466 146.51 448.196 144.027 446.088L141.438 449.138ZM153.233 453.466C157.729 453.466 161.849 451.836 165.027 449.138L162.438 446.088C159.956 448.196 156.745 449.466 153.233 449.466V453.466ZM162.438 449.138C165.617 451.836 169.737 453.466 174.233 453.466V449.466C170.721 449.466 167.51 448.196 165.027 446.088L162.438 449.138ZM174.233 453.466C178.729 453.466 182.849 451.836 186.027 449.138L183.438 446.088C180.956 448.196 177.745 449.466 174.233 449.466V453.466ZM183.438 449.138C186.617 451.836 190.737 453.466 195.233 453.466V449.466C191.721 449.466 188.51 448.196 186.027 446.088L183.438 449.138ZM195.233 453.466C199.729 453.466 203.849 451.836 207.027 449.138L204.438 446.088C201.956 448.196 198.745 449.466 195.233 449.466V453.466ZM204.438 449.138C207.617 451.836 211.737 453.466 216.233 453.466V449.466C212.721 449.466 209.51 448.196 207.027 446.088L204.438 449.138ZM216.233 453.466C220.729 453.466 224.849 451.836 228.027 449.138L225.438 446.088C222.956 448.196 219.745 449.466 216.233 449.466V453.466ZM225.438 449.138C228.617 451.836 232.737 453.466 237.233 453.466V449.466C233.721 449.466 230.51 448.196 228.027 446.088L225.438 449.138ZM237.233 453.466C241.729 453.466 245.849 451.836 249.027 449.138L246.438 446.088C243.956 448.196 240.745 449.466 237.233 449.466V453.466ZM246.438 449.138C249.617 451.836 253.737 453.466 258.233 453.466V449.466C254.721 449.466 251.51 448.196 249.027 446.088L246.438 449.138ZM258.233 453.466C262.729 453.466 266.849 451.836 270.027 449.138L267.438 446.088C264.956 448.196 261.745 449.466 258.233 449.466V453.466ZM267.438 449.138C270.617 451.836 274.737 453.466 279.233 453.466V449.466C275.721 449.466 272.51 448.196 270.027 446.088L267.438 449.138ZM279.233 453.466C283.729 453.466 287.849 451.836 291.027 449.138L288.438 446.088C285.956 448.196 282.745 449.466 279.233 449.466V453.466ZM288.438 449.138C291.617 451.836 295.737 453.466 300.233 453.466V449.466C296.721 449.466 293.51 448.196 291.027 446.088L288.438 449.138ZM300.233 453.466C304.729 453.466 308.849 451.836 312.027 449.138L309.438 446.088C306.956 448.196 303.745 449.466 300.233 449.466V453.466ZM309.438 449.138C312.617 451.836 316.737 453.466 321.233 453.466V449.466C317.721 449.466 314.51 448.196 312.027 446.088L309.438 449.138ZM321.233 453.466C325.729 453.466 329.849 451.836 333.027 449.138L330.438 446.088C327.956 448.196 324.745 449.466 321.233 449.466V453.466ZM330.438 449.138C333.617 451.836 337.737 453.466 342.233 453.466V449.466C338.721 449.466 335.51 448.196 333.027 446.088L330.438 449.138ZM342.233 453.466C346.729 453.466 350.849 451.836 354.027 449.138L351.438 446.088C348.956 448.196 345.745 449.466 342.233 449.466V453.466ZM351.438 449.138C354.617 451.836 358.737 453.466 363.233 453.466V449.466C359.721 449.466 356.51 448.196 354.027 446.088L351.438 449.138ZM363.233 453.466C367.729 453.466 371.849 451.836 375.027 449.138L372.438 446.088C369.956 448.196 366.745 449.466 363.233 449.466V453.466ZM372.438 449.138C375.617 451.836 379.737 453.466 384.233 453.466V449.466C380.721 449.466 377.51 448.196 375.027 446.088L372.438 449.138ZM384.233 453.466C394.303 453.466 402.466 445.303 402.466 435.233H398.466C398.466 443.093 392.093 449.466 384.233 449.466V453.466ZM402.466 435.233C402.466 427.441 397.579 420.796 390.711 418.185L389.289 421.924C394.657 423.964 398.466 429.156 398.466 435.233H402.466ZM392 420.054V371H388V420.054H392ZM392 371V357H388V371H392ZM388 -1V357H392V-1H388Z" fill="#FF9681" mask="url(#path-1-outside-1_657_17135)"/>
</svg>
